PathFileType	4	(X/Y/Z)	/Users/itak/Documents/Research/Walk-IL/dataset/trc/00519_00183.trc
DataRate	CameraRate	NumFrames	NumMarkers	Units	OrigDataRate	OrigDataStartFrame	OrigNumFrames
100.000000	100.000000	4	53	mm	100.000000	69	559
Frame#	Time	RPSI			LPSI			L3			STRN			T10			C7			CLAV			RBAK			LBAK			LSHO			LUPA			LAEL			LAOL			LWTS			LWPS			LFRA			LIFD			LHPS			LHTS			RSHO			RUPA			RAEL			RAOL			RWTS			RWPS			RFRA			RIFD			RHTS			RHPS			RBHD			LFHD			RFHD			LBHD			LHIP			RHIP			RASI			LASI			LKNE			LTHI			LANK			LTIP			LTOE			LMT1			LMT5			LHEE			RKNE			RTHI			RANK			RTIP			RTOE			RMT1			RMT5			RHEE			
		X1	Y1	Z1	X2	Y2	Z2	X3	Y3	Z3	X4	Y4	Z4	X5	Y5	Z5	X6	Y6	Z6	X7	Y7	Z7	X8	Y8	Z8	X9	Y9	Z9	X10	Y10	Z10	X11	Y11	Z11	X12	Y12	Z12	X13	Y13	Z13	X14	Y14	Z14	X15	Y15	Z15	X16	Y16	Z16	X17	Y17	Z17	X18	Y18	Z18	X19	Y19	Z19	X20	Y20	Z20	X21	Y21	Z21	X22	Y22	Z22	X23	Y23	Z23	X24	Y24	Z24	X25	Y25	Z25	X26	Y26	Z26	X27	Y27	Z27	X28	Y28	Z28	X29	Y29	Z29	X30	Y30	Z30	X31	Y31	Z31	X32	Y32	Z32	X33	Y33	Z33	X34	Y34	Z34	X35	Y35	Z35	X36	Y36	Z36	X37	Y37	Z37	X38	Y38	Z38	X39	Y39	Z39	X40	Y40	Z40	X41	Y41	Z41	X42	Y42	Z42	X43	Y43	Z43	X44	Y44	Z44	X45	Y45	Z45	X46	Y46	Z46	X47	Y47	Z47	X48	Y48	Z48	X49	Y49	Z49	X50	Y50	Z50	X51	Y51	Z51	X52	Y52	Z52	X53	Y53	Z53	

70	0.6900000000000001	-1216.369384765625	968.6755981445312	-421.1194458007812	-1192.8046875	970.0140380859375	-542.705322265625	-1219.878784179688	1028.966674804688	-485.87353515625	-1000.370422363281	1199.15576171875	-463.5132446289062	-1236.548706054688	1135.075927734375	-482.7470703125	-1190.772094726562	1365.168579101562	-475.5472412109375	-1036.591552734375	1293.846557617188	-467.2991027832031	-1245.161743164062	1243.1298828125	-394.033203125	-1209.671875	1310.094482421875	-563.381591796875	-1113.436645507812	1360.95361328125	-631.4415283203125	-1123.8408203125	1234.786254882812	-691.8011474609375	-1113.44482421875	1024.717041015625	-717.957763671875	-1183.875732421875	1015.930847167969	-646.8548583984375	-1020.052062988281	838.4105834960938	-678.1478881835938	-1097.736328125	800.7666015625	-717.33740234375	-1094.3935546875	940.0576782226562	-719.7289428710938	-1006.111450195312	681.2498779296875	-672.00244140625	-1072.054077148438	748.9478149414062	-714.3075561523438	-1009.307006835938	761.3905029296875	-697.9844970703125	-1148.46630859375	1359.78857421875	-323.8041381835938	-1170.28076171875	1290.794189453125	-270.1939086914062	-1172.611206054688	1023.473327636719	-229.1919555664062	-1215.526245117188	1004.618041992188	-276.1059265136719	-1056.25146484375	828.622314453125	-237.3351898193359	-1139.479614257812	799.1489868164062	-211.7640380859375	-1169.253784179688	968.7451782226562	-222.8186798095703	-1051.187255859375	667.7291259765625	-225.5338897705078	-1045.462158203125	737.0294799804688	-208.6140289306641	-1115.0576171875	731.4597778320312	-205.6405334472656	-1157.726684570312	1523.642700195312	-392.9942321777344	-1008.269714355469	1582.098388671875	-513.1128540039062	-1030.983276367188	1577.98291015625	-388.0033874511719	-1143.9375	1525.092407226562	-552.0845947265625	-1068.0205078125	893.3474731445312	-655.4852294921875	-1134.361572265625	865.55810546875	-282.728271484375	-1024.355102539062	908.1876831054688	-331.2944030761719	-987.1643676757812	923.16357421875	-570.5681762695312	-1098.02685546875	474.6106567382812	-625.4082641601562	-1068.209838867188	630.3324584960938	-641.24072265625	-1192.7666015625	47.61857604980469	-613.521484375	-1138.535278320312	331.9788208007812	-633.6577758789062	-990.7879028320312	39.15784072875977	-568.9937744140625	-1065.025512695312	43.20379257202148	-529.3385009765625	-1083.961791992188	44.62081527709961	-630.4346313476562	-1236.597534179688	40.7968635559082	-550.0280151367188	-1148.728149414062	479.8231811523438	-300.6990661621094	-1116.853759765625	738.8949584960938	-270.6322021484375	-1200.391723632812	50.78037261962891	-336.4828186035156	-1148.91259765625	338.9832153320312	-315.5811157226562	-994.6747436523438	43.74653244018555	-352.3423461914062	-1056.188598632812	47.40336227416992	-399.9576416015625	-1089.474243164062	48.24193954467773	-308.773193359375	-1247.300659179688	39.33322143554688	-389.2270812988281	
71	0.7000000000000001	-1216.283325195312	968.7039794921875	-421.1452941894531	-1192.724853515625	970.0282592773438	-542.7410278320312	-1219.789306640625	1028.9892578125	-485.8889770507812	-1000.231506347656	1199.09521484375	-463.5513305664062	-1236.374389648438	1135.101318359375	-482.79638671875	-1190.532470703125	1365.191162109375	-475.5495300292969	-1036.348510742188	1293.800537109375	-467.3059997558594	-1244.994018554688	1243.17578125	-393.9678955078125	-1209.47998046875	1310.126953125	-563.3329467773438	-1113.2490234375	1360.962158203125	-631.4326782226562	-1123.667236328125	1234.76708984375	-691.7881469726562	-1113.313842773438	1024.712768554688	-717.9772338867188	-1183.749755859375	1015.939880371094	-646.91943359375	-1019.897399902344	838.40966796875	-678.2237548828125	-1097.700805664062	800.7307739257812	-717.4215087890625	-1094.305541992188	940.0452880859375	-719.760986328125	-1006.069152832031	681.2244873046875	-672.0380859375	-1071.987060546875	748.9011840820312	-714.3405151367188	-1009.276245117188	761.3667602539062	-698.0156860351562	-1148.259033203125	1359.776123046875	-323.7675476074219	-1170.049682617188	1290.795654296875	-270.208740234375	-1172.409423828125	1023.455017089844	-229.2129211425781	-1215.374145507812	1004.62548828125	-276.0741882324219	-1056.108520507812	828.591796875	-237.4285888671875	-1139.304443359375	799.1228637695312	-211.80615234375	-1169.082641601562	968.7294311523438	-222.8134155273438	-1051.080078125	667.6728515625	-225.6115112304688	-1045.35498046875	736.9962768554688	-208.6628112792969	-1114.968383789062	731.4522094726562	-205.6397705078125	-1157.344360351562	1523.698608398438	-392.9850769042969	-1007.864318847656	1582.047119140625	-513.1253662109375	-1030.613403320312	1577.940795898438	-388.0071716308594	-1143.630493164062	1525.100952148438	-552.054443359375	-1068.000732421875	893.33740234375	-655.57080078125	-1134.259521484375	865.5784301757812	-282.8027648925781	-1024.269287109375	908.1680908203125	-331.3525695800781	-987.1201171875	923.1421508789062	-570.623779296875	-1097.9990234375	474.6009826660156	-625.4191284179688	-1068.15966796875	630.3331909179688	-641.290771484375	-1192.766723632812	47.6254997253418	-613.5199584960938	-1138.52001953125	331.9825744628906	-633.6661987304688	-990.7901611328125	39.16017532348633	-568.9942626953125	-1065.047241210938	43.19660568237305	-529.3533325195312	-1083.95849609375	44.62187576293945	-630.4363403320312	-1236.599365234375	40.79697799682617	-550.0272216796875	-1148.677368164062	479.8266296386719	-300.732177734375	-1116.789428710938	738.891357421875	-270.6821899414062	-1200.392700195312	50.77825546264648	-336.4777221679688	-1148.868408203125	338.9780578613281	-315.6017456054688	-994.6781005859375	43.74738311767578	-352.3395385742188	-1056.182861328125	47.40626525878906	-399.9586181640625	-1089.474853515625	48.24215698242188	-308.773193359375	-1247.304443359375	39.3259162902832	-389.2241821289062	
72	0.71	-1216.193969726562	968.7298583984375	-421.1824035644531	-1192.644409179688	970.0371704101562	-542.791259765625	-1219.694458007812	1029.011474609375	-485.9136962890625	-1000.085266113281	1199.031005859375	-463.6056518554688	-1236.18994140625	1135.131103515625	-482.8443908691406	-1190.28125	1365.220947265625	-475.5579833984375	-1036.112182617188	1293.75390625	-467.3121337890625	-1244.821166992188	1243.217651367188	-393.9095153808594	-1209.2802734375	1310.159545898438	-563.3009033203125	-1113.063232421875	1360.968017578125	-631.4344482421875	-1123.490600585938	1234.75146484375	-691.7804565429688	-1113.191772460938	1024.70703125	-718.0044555664062	-1183.627075195312	1015.953186035156	-646.9856567382812	-1019.673034667969	838.432861328125	-678.3158569335938	-1097.670532226562	800.7140502929688	-717.5048217773438	-1094.224975585938	940.03125	-719.8034057617188	-1006.028381347656	681.198974609375	-672.0792236328125	-1071.921264648438	748.8517456054688	-714.3806762695312	-1009.260803222656	761.345703125	-698.0487060546875	-1148.044555664062	1359.767578125	-323.7347106933594	-1169.79638671875	1290.803466796875	-270.2335510253906	-1172.199951171875	1023.436706542969	-229.2342681884766	-1215.212280273438	1004.636474609375	-276.0360107421875	-1055.958251953125	828.5626831054688	-237.5259704589844	-1139.119384765625	799.0986938476562	-211.8572540283203	-1168.897094726562	968.7200927734375	-222.7957000732422	-1050.974609375	667.6233520507812	-225.6993408203125	-1045.242797851562	736.9653930664062	-208.7181243896484	-1114.879150390625	731.4449462890625	-205.6340179443359	-1156.94384765625	1523.753784179688	-392.9680786132812	-1007.481689453125	1581.996215820312	-513.1502075195312	-1030.239379882812	1577.89892578125	-388.0220336914062	-1143.328735351562	1525.113037109375	-552.0127563476562	-1067.988525390625	893.327880859375	-655.6680908203125	-1134.12060546875	865.6002197265625	-282.8852844238281	-1024.186279296875	908.1497802734375	-331.4171447753906	-987.0755615234375	923.1170043945312	-570.6954956054688	-1097.974365234375	474.591064453125	-625.4354858398438	-1068.117553710938	630.3287353515625	-641.3408203125	-1192.767333984375	47.63144302368164	-613.51904296875	-1138.505493164062	331.9848327636719	-633.6744384765625	-990.7920532226562	39.16243743896484	-568.9948120117188	-1065.064331054688	43.19011688232422	-529.3656005859375	-1083.955932617188	44.62200927734375	-630.4383544921875	-1236.601684570312	40.79769515991211	-550.0265502929688	-1148.613159179688	479.8321228027344	-300.7763366699219	-1116.709228515625	738.8843383789062	-270.7431030273438	-1200.392211914062	50.77719116210938	-336.4737854003906	-1148.813720703125	338.9734497070312	-315.6282958984375	-994.6812744140625	43.7485466003418	-352.3382873535156	-1056.177001953125	47.40761566162109	-399.9609680175781	-1089.474609375	48.24224853515625	-308.7743835449219	-1247.308715820312	39.31904602050781	-389.2214050292969	
73	0.72	-1216.100341796875	968.7521362304688	-421.2312622070312	-1192.56201171875	970.041748046875	-542.8547973632812	-1219.5927734375	1029.0341796875	-485.9489440917969	-999.9248046875	1198.966674804688	-463.6759033203125	-1235.996948242188	1135.168701171875	-482.8886413574219	-1190.018188476562	1365.25732421875	-475.572509765625	-1035.885864257812	1293.707763671875	-467.3155517578125	-1244.636962890625	1243.253540039062	-393.8659362792969	-1209.07080078125	1310.190185546875	-563.289794921875	-1112.878173828125	1360.969970703125	-631.4482421875	-1123.315185546875	1234.740478515625	-691.7803955078125	-1113.077758789062	1024.702270507812	-718.0387573242188	-1183.5078125	1015.971313476562	-647.052734375	-1019.389404296875	838.4756469726562	-678.4220581054688	-1097.6376953125	800.7130737304688	-717.5879516601562	-1094.146484375	940.0159912109375	-719.8577880859375	-1005.994445800781	681.171630859375	-672.1256103515625	-1071.859008789062	748.7975463867188	-714.4273681640625	-1009.258728027344	761.3265380859375	-698.0812377929688	-1147.819091796875	1359.762817382812	-323.7088317871094	-1169.52294921875	1290.817260742188	-270.2701110839844	-1171.985961914062	1023.418701171875	-229.2590484619141	-1215.044555664062	1004.650024414062	-275.9914855957031	-1055.79833984375	828.5347900390625	-237.6282043457031	-1138.928466796875	799.0784301757812	-211.9162750244141	-1168.698364257812	968.7169799804688	-222.7717895507812	-1050.869873046875	667.5798950195312	-225.7935943603516	-1045.1240234375	736.9371337890625	-208.7819366455078	-1114.782104492188	731.4371337890625	-205.6321868896484	-1156.525756835938	1523.805419921875	-392.9466552734375	-1007.113098144531	1581.944091796875	-513.1859130859375	-1029.853515625	1577.852905273438	-388.0460205078125	-1143.015991210938	1525.128295898438	-551.9625244140625	-1067.978881835938	893.3197631835938	-655.7760620117188	-1133.938110351562	865.6216430664062	-282.9741516113281	-1024.104248046875	908.1320190429688	-331.4854125976562	-987.0270385742188	923.08642578125	-570.7848510742188	-1097.951538085938	474.5787658691406	-625.4575805664062	-1068.083740234375	630.3173217773438	-641.3916015625	-1192.768798828125	47.63540649414062	-613.5191650390625	-1138.491577148438	331.9853515625	-633.684326171875	-990.7938232421875	39.16400909423828	-568.9957275390625	-1065.076049804688	43.1849365234375	-529.3748168945312	-1083.954711914062	44.62135314941406	-630.4401245117188	-1236.604125976562	40.79906845092773	-550.0266723632812	-1148.537231445312	479.8395385742188	-300.8298645019531	-1116.611328125	738.8735961914062	-270.8157653808594	-1200.39111328125	50.7767448425293	-336.4710083007812	-1148.752075195312	338.9697265625	-315.6589660644531	-994.6839599609375	43.75030899047852	-352.3385620117188	-1056.172729492188	47.40785598754883	-399.9633483886719	-1089.473876953125	48.24216461181641	-308.7764892578125	-1247.313110351562	39.31357574462891	-389.2184753417969	
